<svg xmlns="http://www.w3.org/2000/svg" width="24" height="24" viewBox="0 0 24 24" fill="none">
  <path d="M12 22C17.5228 22 22 17.5228 22 12C22 6.47715 17.5228 2 12 2C6.47715 2 2 6.47715 2 12C2 17.5228 6.47715 22 12 22Z" stroke="#FF6B00" stroke-width="1.5" stroke-linecap="round" stroke-linejoin="round"/>
  <path d="M12 18.2C15.4242 18.2 18.2 15.4242 18.2 12C18.2 8.57583 15.4242 5.8 12 5.8C8.57583 5.8 5.8 8.57583 5.8 12C5.8 15.4242 8.57583 18.2 12 18.2Z" fill="#FF6B00" opacity="0.4"/>
  <path d="M12 15.5C13.933 15.5 15.5 13.933 15.5 12C15.5 10.067 13.933 8.5 12 8.5C10.067 8.5 8.5 10.067 8.5 12C8.5 13.933 10.067 15.5 12 15.5Z" fill="#FF6B00"/>
</svg>