<svg width="25" height="25" viewBox="0 0 25 25" fill="none" xmlns="http://www.w3.org/2000/svg">
<path d="M3.38699 15.8414C3.44402 13.9242 2.40105 13.2023 1.12917 12.7254C0.706518 14.3656 1.87292 15.7305 3.38699 15.8414ZM3.67488 7.28086C4.48581 5.54453 3.81394 4.46406 2.83113 3.52383C1.79949 4.86445 2.32996 6.57852 3.67488 7.28086ZM4.1323 12.1145C4.07644 10.1984 5.11824 9.47344 6.39089 8.99844C6.81199 10.6379 5.64636 12.0023 4.1323 12.1145ZM4.1323 15.0695C4.07644 13.1535 5.11824 12.4305 6.39089 11.9543C6.81199 13.5934 5.64636 14.9582 4.1323 15.0695ZM4.1323 9.16055C4.07644 7.24375 5.11824 6.51875 6.39089 6.04258C6.81199 7.68359 5.64636 9.04766 4.1323 9.16055ZM3.38699 12.8867C3.44402 10.9707 2.40105 10.2457 1.12917 9.7707C0.706518 11.4102 1.87292 12.775 3.38699 12.8867ZM3.38699 9.93281C3.44402 8.01562 2.40105 7.29102 1.12917 6.81406C0.706518 8.45586 1.87292 9.81875 3.38699 9.93281ZM17.7499 24.3887H7.47214L12.6116 15.484L17.7499 24.3887ZM9.51394 23.2094H15.7085L12.6112 17.8441L9.51394 23.2094ZM1.8866 18.3227L23.6604 12.3992L23.337 11.2027L1.5616 17.127L1.8866 18.3227ZM17.251 0C17.251 0 17.4104 3.14102 20.1635 2.87461C20.1635 2.87461 20.4741 0.250391 17.251 0ZM20.1335 10.216C19.9856 10.424 19.79 10.5935 19.563 10.7101C19.336 10.8267 19.0844 10.8872 18.8292 10.8863C18.3905 10.8863 17.9608 10.6801 17.671 10.391C17.078 9.74414 16.3093 8.29805 16.3093 8.29805C15.8784 7.42344 15.6475 6.74688 15.6475 6.06289C15.6475 4.60586 16.8268 3.34219 18.2878 3.34219C18.9782 3.34172 19.6412 3.61246 20.1339 4.09609C20.6261 3.61229 21.289 3.3415 21.9792 3.34219C23.4397 3.34219 24.619 4.60586 24.619 6.06289C24.619 6.74688 24.3878 7.42344 23.9573 8.29805C23.9573 8.29805 23.1886 9.74375 22.5956 10.391C22.3057 10.6801 21.876 10.8863 21.437 10.8863C21.1819 10.8871 20.9303 10.8267 20.7034 10.71C20.4765 10.5934 20.2813 10.424 20.1335 10.216Z" fill="black"/>
</svg>
