<svg width="25" height="25" viewBox="0 0 25 25" fill="none" xmlns="http://www.w3.org/2000/svg">
<rect width="25" height="25" transform="matrix(0 1 -1 0 25 0)" fill="white"/>
<path d="M4 12.5C4 7.8 7.8 4 12.5 4C17.2 4 21 7.8 21 12.5C21 17.2 17.2 21 12.5 21C7.8 21 4 17.2 4 12.5ZM20 12.5C20 8.35 16.65 5 12.5 5C8.35 5 5 8.35 5 12.5C5 16.65 8.35 20 12.5 20C16.65 20 20 16.65 20 12.5Z" fill="#F97316"/>
<path d="M11.65 16.65L15.8 12.5L11.65 8.34999L12.35 7.64999L17.2 12.5L12.35 17.35L11.65 16.65Z" fill="#F97316"/>
<path d="M16.5 12V13H8V12H16.5Z" fill="#F97316"/>
</svg>
