<svg width="20" height="20" viewBox="0 0 20 20" fill="none" xmlns="http://www.w3.org/2000/svg">
<path fill-rule="evenodd" clip-rule="evenodd" d="M8.28838 3.33333C7.15617 3.33332 6.24311 3.33331 5.51054 3.40783C4.75436 3.48475 4.09858 3.64792 3.51846 4.03554C3.0635 4.33953 2.67287 4.73016 2.36888 5.18512C1.98126 5.76524 1.81809 6.42102 1.74117 7.1772C1.66665 7.90977 1.66666 8.82281 1.66667 9.95503V10.0449C1.66666 11.1772 1.66665 12.0902 1.74117 12.8228C1.81809 13.579 1.98126 14.2348 2.36888 14.8149C2.67287 15.2698 3.0635 15.6605 3.51846 15.9645C4.09858 16.3521 4.75436 16.5152 5.51054 16.5922C6.24311 16.6667 7.15615 16.6667 8.28837 16.6667H11.7116C12.8439 16.6667 13.7569 16.6667 14.4895 16.5922C15.2456 16.5152 15.9014 16.3521 16.4815 15.9645C16.9365 15.6605 17.3271 15.2698 17.6311 14.8149C18.0187 14.2348 18.1819 13.579 18.2588 12.8228C18.3334 12.0902 18.3333 11.1772 18.3333 10.045V9.95503C18.3333 8.82283 18.3334 7.90977 18.2588 7.1772C18.1819 6.42102 18.0187 5.76524 17.6311 5.18512C17.3271 4.73016 16.9365 4.33953 16.4815 4.03554C15.9014 3.64792 15.2456 3.48475 14.4895 3.40783C13.7569 3.33331 12.8439 3.33332 11.7116 3.33333H8.28838ZM4.64641 5.30736C4.88556 5.1946 5.20227 5.11446 5.67921 5.06594C6.31754 5.001 7.14561 5 8.33334 5H11.6667C12.8544 5 13.6825 5.001 14.3208 5.06594C14.7977 5.11446 15.1144 5.1946 15.3536 5.30736L13.2243 7.96899C12.9869 8.26573 12.6587 8.47635 12.29 8.56851C10.7865 8.9444 9.21353 8.9444 7.70999 8.56851C7.34133 8.47635 7.01311 8.26573 6.77572 7.96899L4.64641 5.30736ZM3.53666 6.58814C3.47695 6.78691 3.43125 7.03161 3.39928 7.34587C3.33434 7.9842 3.33334 8.81227 3.33334 10C3.33334 11.1877 3.33434 12.0158 3.39928 12.6541C3.4628 13.2785 3.58052 13.6283 3.75466 13.8889C3.93706 14.1619 4.17143 14.3963 4.44441 14.5787C4.70504 14.7528 5.05482 14.8705 5.67921 14.9341C6.31754 14.999 7.14561 15 8.33334 15H11.6667C12.8544 15 13.6825 14.999 14.3208 14.9341C14.9452 14.8705 15.295 14.7528 15.5556 14.5787C15.8286 14.3963 16.0629 14.1619 16.2453 13.8889C16.4195 13.6283 16.5372 13.2785 16.6007 12.6541C16.6657 12.0158 16.6667 11.1877 16.6667 10C16.6667 8.81227 16.6657 7.9842 16.6007 7.34587C16.5688 7.03161 16.5231 6.78691 16.4633 6.58814L14.5257 9.01015C14.0604 9.59186 13.4169 10.0047 12.6942 10.1854C10.9253 10.6277 9.0747 10.6277 7.30577 10.1854C6.58306 10.0047 5.93964 9.59186 5.47427 9.01015L3.53666 6.58814Z" fill="#52525B"/>
</svg>
