<svg width="24" height="24" viewBox="0 0 24 24" fill="none" xmlns="http://www.w3.org/2000/svg">
<path d="M23.1206 7.12193L20.7066 4.70691L22.7066 2.70689L21.2926 1.29287L19.2926 3.29289L16.8785 0.878868C16.5999 0.600236 16.2692 0.37921 15.9052 0.228412C15.5412 0.0776149 15.151 0 14.757 0C14.363 0 13.9728 0.0776149 13.6088 0.228412C13.2448 0.37921 12.9141 0.600236 12.6355 0.878868L9.80746 3.7069L14.3425 8.24294L8.24244 14.343L3.7064 9.80796L0.878368 12.636C0.315949 13.1986 0 13.9615 0 14.757C0 15.5525 0.315949 16.3154 0.878368 16.878L3.29239 19.2931L1.29237 21.2931L2.70639 22.7071L4.70641 20.7071L7.12043 23.1211C7.39902 23.3997 7.72976 23.6208 8.09377 23.7716C8.45779 23.9223 8.84794 24 9.24195 24C9.63597 24 10.0261 23.9223 10.3901 23.7716C10.7541 23.6208 11.0849 23.3997 11.3635 23.1211L14.1915 20.2931L9.65646 15.757L15.7565 9.65696L20.2916 14.192L23.1196 11.364C23.682 10.8014 23.998 10.0385 23.998 9.24295C23.998 8.44745 23.682 7.68452 23.1196 7.12193H23.1206Z" fill="#71717A"/>
</svg>
