<svg width="24" height="24" viewBox="0 0 24 24" fill="none" xmlns="http://www.w3.org/2000/svg">
<path d="M3.25149 15.2078C3.30624 13.3673 2.30499 12.6742 1.08399 12.2164C0.678238 13.791 1.79799 15.1013 3.25149 15.2078ZM3.52786 6.98962C4.30636 5.32275 3.66136 4.2855 2.71786 3.38287C1.72749 4.66988 2.23674 6.31537 3.52786 6.98962ZM3.96699 11.6299C3.91336 9.7905 4.91349 9.0945 6.13524 8.6385C6.53949 10.2124 5.42049 11.5222 3.96699 11.6299ZM3.96699 14.4668C3.91336 12.6274 4.91349 11.9332 6.13524 11.4761C6.53949 13.0496 5.42049 14.3599 3.96699 14.4668ZM3.96699 8.79412C3.91336 6.954 4.91349 6.258 6.13524 5.80088C6.53949 7.37625 5.42049 8.68575 3.96699 8.79412ZM3.25149 12.3713C3.30624 10.5319 2.30499 9.83587 1.08399 9.37987C0.678238 10.9537 1.79799 12.264 3.25149 12.3713ZM3.25149 9.5355C3.30624 7.695 2.30499 6.99937 1.08399 6.5415C0.678238 8.11762 1.79799 9.426 3.25149 9.5355ZM17.0399 23.4131H7.17324L12.1071 14.8646L17.0399 23.4131ZM9.13336 22.281H15.0801L12.1067 17.1304L9.13336 22.281ZM1.81111 17.5898L22.714 11.9032L22.4035 10.7546L1.49911 16.4419L1.81111 17.5898ZM16.561 0C16.561 0 16.714 3.01538 19.357 2.75962C19.357 2.75962 19.6551 0.240375 16.561 0ZM19.3281 9.80737C19.1862 10.007 18.9984 10.1697 18.7805 10.2817C18.5626 10.3937 18.321 10.4517 18.076 10.4509C17.6549 10.4509 17.2424 10.2529 16.9641 9.97538C16.3949 9.35437 15.6569 7.96613 15.6569 7.96613C15.2432 7.1265 15.0216 6.477 15.0216 5.82038C15.0216 4.42163 16.1537 3.2085 17.5562 3.2085C18.219 3.20805 18.8555 3.46796 19.3285 3.93225C19.8011 3.4678 20.4374 3.20784 21.1 3.2085C22.5021 3.2085 23.6342 4.42163 23.6342 5.82038C23.6342 6.477 23.4122 7.1265 22.999 7.96613C22.999 7.96613 22.261 9.354 21.6917 9.97538C21.4135 10.2529 21.001 10.4509 20.5795 10.4509C20.3346 10.4516 20.093 10.3936 19.8752 10.2816C19.6574 10.1696 19.47 10.007 19.3281 9.80737Z" fill="#71717A"/>
</svg>
