<svg width="40" height="40" viewBox="0 0 40 40" fill="none" xmlns="http://www.w3.org/2000/svg">
<path fill-rule="evenodd" clip-rule="evenodd" d="M24.5533 6.66675C24.6905 6.66682 24.8256 6.70078 24.9465 6.76562C25.0675 6.83046 25.1706 6.92416 25.2466 7.03841L28.3333 11.6667H34.9999C35.4419 11.6667 35.8659 11.8423 36.1784 12.1549C36.491 12.4675 36.6666 12.8914 36.6666 13.3334V31.6667C36.6666 32.1088 36.491 32.5327 36.1784 32.8453C35.8659 33.1578 35.4419 33.3334 34.9999 33.3334H4.99992C4.55789 33.3334 4.13397 33.1578 3.82141 32.8453C3.50885 32.5327 3.33325 32.1088 3.33325 31.6667V13.3334C3.33325 12.8914 3.50885 12.4675 3.82141 12.1549C4.13397 11.8423 4.55789 11.6667 4.99992 11.6667H11.6666L14.7533 7.03841C14.8293 6.92416 14.9323 6.83046 15.0533 6.76562C15.1743 6.70078 15.3093 6.66682 15.4466 6.66675H24.5533ZM19.9999 27.5001C21.547 27.5001 23.0307 26.8855 24.1247 25.7915C25.2187 24.6976 25.8333 23.2138 25.8333 21.6667C25.8333 20.1197 25.2187 18.6359 24.1247 17.542C23.0307 16.448 21.547 15.8334 19.9999 15.8334C18.4528 15.8334 16.9691 16.448 15.8751 17.542C14.7812 18.6359 14.1666 20.1197 14.1666 21.6667C14.1666 23.2138 14.7812 24.6976 15.8751 25.7915C16.9691 26.8855 18.4528 27.5001 19.9999 27.5001Z" fill="black"/>
</svg>
