<svg width="24" height="24" viewBox="0 0 24 24" fill="none" xmlns="http://www.w3.org/2000/svg">
<path d="M3.50001 20C3.35801 20 3.23901 19.9523 3.14301 19.857C3.04701 19.7617 2.99934 19.6427 3.00001 19.5C3.00067 19.3573 3.04834 19.2383 3.14301 19.143C3.23767 19.0477 3.35667 19 3.50001 19H11.5V7.94C11.028 7.854 10.6113 7.64 10.25 7.298C9.88867 6.956 9.65867 6.52333 9.56001 6H6.11601L8.80801 12.739C8.87867 12.8963 8.91567 13.058 8.91901 13.224C8.92234 13.39 8.90767 13.554 8.87501 13.716C8.72501 14.3287 8.35734 14.7983 7.77201 15.125C7.18667 15.4517 6.59601 15.615 6.00001 15.615C5.40401 15.615 4.81334 15.4517 4.22801 15.125C3.64267 14.7983 3.27501 14.3283 3.12501 13.715C3.09167 13.5537 3.07701 13.39 3.08101 13.224C3.08501 13.058 3.12201 12.896 3.19201 12.738L5.88501 6H4.50001C4.35801 6 4.23901 5.95233 4.14301 5.857C4.04701 5.76167 3.99934 5.64267 4.00001 5.5C4.00067 5.35733 4.04834 5.23833 4.14301 5.143C4.23767 5.04767 4.35667 5 4.50001 5H9.56001C9.67001 4.44267 9.94801 3.97 10.394 3.582C10.84 3.194 11.3753 3 12 3C12.6247 3 13.16 3.194 13.606 3.582C14.052 3.97 14.33 4.44267 14.44 5H19.5C19.6427 5 19.7617 5.04767 19.857 5.143C19.9523 5.23833 20 5.35733 20 5.5C20 5.64267 19.9523 5.76167 19.857 5.857C19.7617 5.95233 19.6427 6 19.5 6H18.116L20.808 12.739C20.8787 12.8963 20.9157 13.058 20.919 13.224C20.9223 13.39 20.9077 13.554 20.875 13.716C20.725 14.3287 20.3573 14.7983 19.772 15.125C19.1867 15.4517 18.596 15.615 18 15.615C17.404 15.615 16.8133 15.4517 16.228 15.125C15.6427 14.7983 15.275 14.3283 15.125 13.715C15.0917 13.5537 15.077 13.39 15.081 13.224C15.085 13.058 15.122 12.896 15.192 12.738L17.884 6H14.441C14.3417 6.52333 14.1113 6.956 13.75 7.298C13.3887 7.64 12.972 7.85433 12.5 7.941V19H20.5C20.6427 19 20.7617 19.0477 20.857 19.143C20.9523 19.2383 21 19.3573 21 19.5C21 19.6427 20.9523 19.7617 20.857 19.857C20.7617 19.9523 20.6427 20 20.5 20H3.50001ZM15.99 13.116H20.01L18 8.092L15.99 13.116ZM3.99001 13.116H8.01001L6.00001 8.092L3.99001 13.116ZM12 7C12.4113 7 12.7643 6.853 13.059 6.559C13.353 6.26433 13.5 5.91133 13.5 5.5C13.5 5.08867 13.353 4.73567 13.059 4.441C12.7643 4.147 12.4113 4 12 4C11.5887 4 11.2357 4.147 10.941 4.441C10.6463 4.735 10.4993 5.088 10.5 5.5C10.5007 5.912 10.6477 6.265 10.941 6.559C11.2357 6.853 11.5887 7 12 7Z" fill="#F97316"/>
</svg>
