<svg width="20" height="20" viewBox="0 0 20 20" fill="none" xmlns="http://www.w3.org/2000/svg">
<path fill-rule="evenodd" clip-rule="evenodd" d="M14.139 15.3166L16.9118 18.0893L18.0903 16.9108L3.09027 1.9108L1.91176 3.08931L4.37421 5.55176C3.99285 5.85072 3.64531 6.19407 3.33958 6.57623L2.3451 7.81933C2.11613 8.10552 1.91624 8.35536 1.76503 8.57656C1.60377 8.81248 1.46427 9.06251 1.38556 9.35941C1.27425 9.77926 1.27425 10.2209 1.38556 10.6407C1.46427 10.9376 1.60377 11.1876 1.76503 11.4236C1.91624 11.6448 2.11613 11.8946 2.3451 12.1808L3.33958 13.4239C4.09967 14.374 5.11815 15.0842 6.27244 15.4689C8.69271 16.2757 11.3094 16.2757 13.7296 15.4689C13.8681 15.4228 14.0046 15.3719 14.139 15.3166ZM11.6942 12.8718L10.4327 11.6102C10.2949 11.6471 10.1502 11.6667 10.0008 11.6667C9.08033 11.6667 8.33414 10.9205 8.33414 10.0001C8.33414 9.8507 8.35379 9.70593 8.39064 9.56819L7.12907 8.30662C6.83578 8.80291 6.66748 9.38183 6.66748 10.0001C6.66748 11.841 8.15986 13.3334 10.0008 13.3334C10.619 13.3334 11.198 13.1651 11.6942 12.8718Z" fill="#A1A1AA"/>
<path d="M16.6625 13.4239C16.6044 13.4965 16.5448 13.5678 16.4837 13.6376L13.3031 10.4569C13.3236 10.3076 13.3341 10.1551 13.3341 10.0001C13.3341 8.1591 11.8418 6.66672 10.0008 6.66672C9.84581 6.66672 9.69328 6.6773 9.54391 6.69777L7.1277 4.28157C9.30113 3.73543 11.592 3.81863 13.7296 4.53118C14.8839 4.91594 15.9024 5.62612 16.6625 6.57622L17.657 7.81931C17.8859 8.10551 18.0858 8.35535 18.237 8.57656C18.3983 8.81248 18.5378 9.06251 18.6165 9.35941C18.7278 9.77926 18.7278 10.2209 18.6165 10.6407C18.5378 10.9376 18.3983 11.1876 18.237 11.4236C18.0858 11.6448 17.886 11.8946 17.657 12.1808L16.6625 13.4239Z" fill="#A1A1AA"/>
</svg>
