<svg width="20" height="20" viewBox="0 0 20 20" fill="none" xmlns="http://www.w3.org/2000/svg">
<path fill-rule="evenodd" clip-rule="evenodd" d="M5.83303 6.67584L5.83302 3.97196C5.83295 3.81127 5.83289 3.67173 5.84667 3.54038C5.94637 2.58999 6.57913 1.77957 7.47696 1.45235C7.60106 1.40712 7.73643 1.37333 7.89235 1.33443L7.94327 1.3217C8.17991 1.26254 8.32108 1.22725 8.46301 1.19754C9.47649 0.985383 10.5229 0.985383 11.5364 1.19754C11.6783 1.22725 11.8195 1.26254 12.0561 1.32171L12.107 1.33443C12.263 1.37333 12.3983 1.40712 12.5224 1.45235C13.4203 1.77957 14.053 2.58999 14.1527 3.54038C14.1665 3.67173 14.1664 3.81125 14.1664 3.97193L14.1664 6.67584C15.8198 6.78685 17.2568 7.88598 17.7866 9.47526C18.441 11.4386 18.441 13.5612 17.7866 15.5246C17.2275 17.2019 15.6578 18.3332 13.8897 18.3332H6.10968C4.34163 18.3332 2.77194 17.2019 2.21284 15.5246C1.55839 13.5612 1.55839 11.4386 2.21284 9.47526C2.7426 7.88598 4.17963 6.78685 5.83303 6.67584ZM8.8045 2.82884C9.59276 2.66384 10.4066 2.66384 11.1949 2.82884C11.3016 2.85117 11.4102 2.87819 11.6694 2.94299C11.8775 2.99501 11.9208 3.00697 11.9517 3.01825C12.251 3.12733 12.4619 3.39747 12.4951 3.71426C12.4986 3.74702 12.4997 3.79191 12.4997 4.00638V6.66658H7.4997V4.00638C7.4997 3.79191 7.50081 3.74702 7.50425 3.71426C7.53748 3.39747 7.7484 3.12733 8.04767 3.01825C8.07862 3.00697 8.1219 2.99501 8.32997 2.94299C8.58919 2.87819 8.69782 2.85117 8.8045 2.82884ZM3.79398 10.0023C4.12623 9.00556 5.05901 8.33325 6.10968 8.33325H13.8897C14.9404 8.33325 15.8732 9.00556 16.2054 10.0023C16.7458 11.6235 16.7458 13.3763 16.2054 14.9975C15.8732 15.9943 14.9404 16.6666 13.8897 16.6666H6.10968C5.05901 16.6666 4.12623 15.9943 3.79398 14.9975C3.25357 13.3763 3.25357 11.6235 3.79398 10.0023Z" fill="#52525B"/>
</svg>
