<svg width="29" height="28" viewBox="0 0 29 28" fill="none" xmlns="http://www.w3.org/2000/svg">
<path fill-rule="evenodd" clip-rule="evenodd" d="M13.2112 12.7683C12.7008 12.7683 12.2972 13.165 12.2972 13.6667C12.2972 14.1567 12.7008 14.565 13.2112 14.565H20.3333V20.1417C20.3333 23 17.9712 25.3333 15.0511 25.3333H9.27035C6.36216 25.3333 4 23.0117 4 20.1533V7.19167C4 4.32167 6.37403 2 9.28222 2H15.0749C17.9712 2 20.3333 4.32167 20.3333 7.18V12.7683H13.2112ZM24.5685 9.63024L27.9752 13.0252C28.1502 13.2002 28.2435 13.4219 28.2435 13.6669C28.2435 13.9002 28.1502 14.1336 27.9752 14.2969L24.5685 17.6919C24.3935 17.8669 24.1602 17.9602 23.9385 17.9602C23.7052 17.9602 23.4718 17.8669 23.2968 17.6919C22.9468 17.3419 22.9468 16.7702 23.2968 16.4202L25.1635 14.5652H20.3335V12.7686H25.1635L23.2968 10.9136C22.9468 10.5636 22.9468 9.9919 23.2968 9.6419C23.6468 9.28023 24.2185 9.28023 24.5685 9.63024Z" fill="#F97316"/>
</svg>
