<svg width="18" height="16" viewBox="0 0 18 16" fill="none" xmlns="http://www.w3.org/2000/svg">
<path d="M1.616 16C1.15533 16 0.771 15.824 0.463 15.472C0.155 15.12 0.000666667 14.6804 0 14.1531V1.84686C0 1.32038 0.154333 0.881142 0.463 0.529143C0.771667 0.177143 1.15567 0.000761905 1.615 0H16.385C16.845 0 17.229 0.176381 17.537 0.529143C17.845 0.881904 17.9993 1.32114 18 1.84686V14.1543C18 14.68 17.8457 15.1192 17.537 15.472C17.2283 15.8248 16.8443 16.0008 16.385 16H1.616ZM9 8.13257L1 2.15429V14.1543C1 14.3592 1.05767 14.5276 1.173 14.6594C1.28833 14.7912 1.436 14.8571 1.616 14.8571H16.385C16.5643 14.8571 16.7117 14.7912 16.827 14.6594C16.9423 14.5276 17 14.3589 17 14.1531V2.15314L9 8.13257ZM9 6.85714L16.692 1.14286H1.308L9 6.85714ZM1 2.15429V1.14286V14.1543C1 14.3592 1.05767 14.5276 1.173 14.6594C1.28833 14.7912 1.436 14.8571 1.616 14.8571H1V2.15429Z" fill="#F97316"/>
</svg>
