<svg width="25" height="25" viewBox="0 0 25 25" fill="none" xmlns="http://www.w3.org/2000/svg">
<path d="M24.0839 7.41868L21.5693 4.90303L23.6527 2.81967L22.1798 1.34674L20.0964 3.4301L17.5818 0.915487C17.2916 0.625245 16.9471 0.39501 16.5679 0.237929C16.1887 0.0808488 15.7823 0 15.3719 0C14.9614 0 14.555 0.0808488 14.1759 0.237929C13.7967 0.39501 13.4522 0.625245 13.162 0.915487L10.2161 3.86135L14.9401 8.5864L8.58587 14.9406L3.86083 10.2166L0.914967 13.1625C0.329114 13.7485 0 14.5432 0 15.3719C0 16.2005 0.329114 16.9952 0.914967 17.5813L3.42957 20.0969L1.34622 22.1803L2.81915 23.6532L4.90251 21.5699L7.41711 24.0845C7.70731 24.3747 8.05183 24.6049 8.43101 24.762C8.81019 24.9191 9.2166 24.9999 9.62703 24.9999C10.0375 24.9999 10.4439 24.9191 10.8231 24.762C11.2022 24.6049 11.5468 24.3747 11.8369 24.0845L14.7828 21.1386L10.0588 16.4136L16.413 10.0593L21.137 14.7833L24.0829 11.8375C24.6688 11.2514 24.9979 10.4567 24.9979 9.62807C24.9979 8.79943 24.6688 8.00471 24.0829 7.41868H24.0839Z" fill="black"/>
</svg>
